<?xml version="1.0" encoding="UTF-8"?>
<svg xmlns="http://www.w3.org/2000/svg" xmlns:xlink="http://www.w3.org/1999/xlink" width="300pt" height="34pt" viewBox="0 0 300 34" version="1.1">
<defs>
<clipPath id="clip1">
  <path d="M 253 0.0273438 L 276 0.0273438 L 276 33.988281 L 253 33.988281 Z M 253 0.0273438 "/>
</clipPath>
<clipPath id="clip2">
  <path d="M 294 28 L 300 28 L 300 33.988281 L 294 33.988281 Z M 294 28 "/>
</clipPath>
</defs>
<g id="surface1">
<path style=" stroke:none;fill-rule:nonzero;fill:rgb(74.509804%,68.627451%,52.941176%);fill-opacity:1;" d="M 161.152344 19.917969 C 160.957031 24.058594 157.554688 27.3125 153.425781 27.3125 C 149.296875 27.3125 145.894531 24.058594 145.703125 19.917969 L 145.703125 0.0117188 L 138.933594 0.0117188 L 138.933594 19.917969 C 139.453125 27.503906 145.738281 33.386719 153.316406 33.386719 C 160.894531 33.386719 167.179688 27.503906 167.699219 19.917969 L 167.699219 0.0117188 L 161.152344 0.0117188 Z M 161.152344 19.917969 "/>
<path style=" stroke:none;fill-rule:nonzero;fill:rgb(74.509804%,68.627451%,52.941176%);fill-opacity:1;" d="M 17.460938 6.496094 C 20.199219 6.480469 22.839844 7.492188 24.875 9.328125 L 28.765625 3.984375 C 25.570312 1.382812 21.574219 -0.0195312 17.460938 0.0117188 C 8.117188 -0.3125 0.28125 7.023438 -0.0429688 16.398438 C -0.363281 25.769531 6.949219 33.632812 16.292969 33.953125 C 16.679688 33.953125 17.066406 33.953125 17.460938 33.953125 C 21.582031 33.957031 25.574219 32.53125 28.765625 29.914062 L 24.875 24.550781 C 22.847656 26.402344 20.203125 27.417969 17.460938 27.402344 C 11.707031 27.59375 6.882812 23.070312 6.691406 17.296875 C 6.5 11.523438 11.011719 6.6875 16.769531 6.496094 L 17.460938 6.496094 "/>
<path style=" stroke:none;fill-rule:nonzero;fill:rgb(74.509804%,68.627451%,52.941176%);fill-opacity:1;" d="M 90.085938 22.769531 L 73.824219 0.0117188 L 67.15625 0.0117188 L 67.15625 33.953125 L 73.824219 33.953125 L 73.824219 11.128906 L 90.085938 33.953125 L 96.75 33.953125 L 96.75 0.0117188 L 90.085938 0.0117188 Z M 90.085938 22.769531 "/>
<path style=" stroke:none;fill-rule:nonzero;fill:rgb(74.509804%,68.627451%,52.941176%);fill-opacity:1;" d="M 104.230469 0.0117188 L 104.230469 6.460938 L 114.535156 6.460938 L 114.535156 33.953125 L 121.203125 33.953125 L 121.203125 6.496094 L 131.523438 6.496094 L 131.523438 0.0117188 Z M 104.230469 0.0117188 "/>
<path style=" stroke:none;fill-rule:nonzero;fill:rgb(74.509804%,68.627451%,52.941176%);fill-opacity:1;" d="M 281.691406 0.0117188 L 281.691406 6.460938 L 285.328125 6.460938 L 285.328125 33.953125 L 291.996094 33.953125 L 291.996094 0.0117188 Z M 281.691406 0.0117188 "/>
<path style=" stroke:none;fill-rule:nonzero;fill:rgb(74.509804%,68.627451%,52.941176%);fill-opacity:1;" d="M 37.597656 0.0117188 L 37.597656 33.953125 L 60.914062 33.953125 L 60.914062 27.402344 L 44.265625 27.402344 L 44.265625 20.171875 L 57.613281 20.171875 L 57.613281 13.707031 L 44.265625 13.707031 L 44.265625 6.496094 L 60.914062 6.496094 L 60.914062 0.0117188 Z M 37.597656 0.0117188 "/>
<path style=" stroke:none;fill-rule:nonzero;fill:rgb(74.509804%,68.627451%,52.941176%);fill-opacity:1;" d="M 190.441406 16.289062 L 181.980469 16.289062 L 181.980469 6.496094 L 190.441406 6.496094 C 192.238281 6.347656 193.972656 7.207031 194.949219 8.730469 C 195.925781 10.253906 195.984375 12.191406 195.105469 13.773438 C 194.226562 15.355469 192.550781 16.320312 190.746094 16.289062 L 190.441406 16.289062 M 202.164062 11.398438 C 202.0625 5.007812 196.8125 -0.09375 190.441406 0.0117188 L 175.347656 0.0117188 L 175.347656 33.953125 L 182.113281 33.953125 L 182.113281 22.753906 L 186.378906 22.753906 L 194.246094 33.953125 L 202.164062 33.953125 L 193.859375 22.328125 C 198.71875 20.953125 202.101562 16.535156 202.164062 11.46875 "/>
<path style=" stroke:none;fill-rule:nonzero;fill:rgb(74.509804%,68.627451%,52.941176%);fill-opacity:1;" d="M 231.371094 0.0117188 L 221.660156 13.707031 L 211.792969 0.0117188 L 203.859375 0.0117188 L 218.273438 20.140625 L 218.273438 33.953125 L 225.042969 33.953125 L 225.042969 20.140625 L 239.304688 0.0117188 Z M 231.371094 0.0117188 "/>
<g clip-path="url(#clip1)" clip-rule="nonzero">
<path style=" stroke:none;fill-rule:nonzero;fill:rgb(74.509804%,68.627451%,52.941176%);fill-opacity:1;" d="M 273.199219 16.984375 L 273.367188 16.746094 C 275.867188 12.941406 275.6875 7.96875 272.925781 4.355469 C 270.160156 0.742188 265.417969 -0.71875 261.105469 0.714844 C 256.796875 2.148438 253.867188 6.167969 253.808594 10.71875 L 253.808594 11.128906 L 260.253906 11.128906 C 260.253906 10.992188 260.253906 10.855469 260.253906 10.71875 C 260.253906 8.378906 262.148438 6.476562 264.484375 6.476562 C 265.566406 6.4375 266.621094 6.828125 267.414062 7.566406 C 268.207031 8.304688 268.675781 9.332031 268.714844 10.414062 L 268.714844 10.71875 C 268.5 11.902344 268.039062 13.023438 267.359375 14.011719 L 253.6875 33.953125 L 275.804688 33.953125 L 275.804688 27.402344 L 265.988281 27.402344 L 273.214844 16.984375 Z M 273.199219 16.984375 "/>
</g>
<g clip-path="url(#clip2)" clip-rule="nonzero">
<path style=" stroke:none;fill-rule:nonzero;fill:rgb(74.509804%,68.627451%,52.941176%);fill-opacity:1;" d="M 296.480469 31.035156 L 297.074219 31.035156 C 297.273438 31.054688 297.472656 31.015625 297.648438 30.917969 C 297.753906 30.828125 297.808594 30.695312 297.800781 30.558594 C 297.796875 30.472656 297.769531 30.390625 297.714844 30.324219 C 297.671875 30.242188 297.601562 30.179688 297.511719 30.152344 C 297.355469 30.136719 297.195312 30.136719 297.039062 30.152344 L 296.480469 30.152344 L 296.480469 31.070312 Z M 295.988281 32.730469 L 295.988281 29.726562 L 297.023438 29.726562 C 297.28125 29.6875 297.542969 29.6875 297.800781 29.726562 C 297.953125 29.777344 298.085938 29.878906 298.171875 30.015625 C 298.261719 30.148438 298.308594 30.300781 298.308594 30.457031 C 298.308594 30.675781 298.222656 30.882812 298.070312 31.035156 C 297.898438 31.191406 297.679688 31.289062 297.445312 31.308594 C 297.542969 31.339844 297.636719 31.390625 297.714844 31.460938 C 297.867188 31.644531 298.019531 31.851562 298.15625 32.054688 L 298.511719 32.648438 L 297.9375 32.648438 L 297.664062 32.171875 C 297.53125 31.917969 297.359375 31.683594 297.15625 31.476562 C 297.046875 31.394531 296.90625 31.355469 296.769531 31.375 L 296.480469 31.375 L 296.480469 32.648438 Z M 297.226562 28.863281 C 296.820312 28.863281 296.425781 28.96875 296.074219 29.167969 C 295.714844 29.363281 295.414062 29.660156 295.210938 30.015625 C 295.003906 30.371094 294.894531 30.777344 294.890625 31.1875 C 294.890625 31.59375 295.003906 31.992188 295.210938 32.34375 C 295.402344 32.710938 295.707031 33.015625 296.074219 33.207031 C 296.785156 33.628906 297.667969 33.628906 298.375 33.207031 C 298.742188 33.011719 299.042969 32.710938 299.238281 32.34375 C 299.441406 31.992188 299.546875 31.59375 299.542969 31.1875 C 299.542969 30.777344 299.441406 30.375 299.238281 30.015625 C 299.035156 29.652344 298.730469 29.359375 298.359375 29.167969 C 298.015625 28.964844 297.625 28.859375 297.226562 28.863281 M 297.226562 28.386719 C 297.703125 28.402344 298.175781 28.53125 298.59375 28.761719 C 299.035156 28.996094 299.394531 29.355469 299.628906 29.796875 C 300.132812 30.65625 300.132812 31.722656 299.628906 32.578125 C 299.394531 33.015625 299.042969 33.375 298.613281 33.613281 C 297.753906 34.109375 296.695312 34.109375 295.835938 33.613281 C 295.398438 33.378906 295.039062 33.019531 294.804688 32.578125 C 294.300781 31.722656 294.300781 30.65625 294.804688 29.796875 C 295.035156 29.355469 295.394531 28.992188 295.835938 28.761719 C 296.257812 28.53125 296.726562 28.402344 297.207031 28.386719 "/>
</g>
</g>
</svg>
