<?xml version="1.0" encoding="utf-8"?>
<!-- Generator: Adobe Illustrator 19.2.1, SVG Export Plug-In . SVG Version: 6.00 Build 0)  -->
<svg version="1.1" id="layer" xmlns="http://www.w3.org/2000/svg" xmlns:xlink="http://www.w3.org/1999/xlink" x="0px" y="0px"
	 viewBox="0 0 652 652" style="enable-background:new 0 0 652 652;" xml:space="preserve">
<style type="text/css">
	.st0{fill:#BDAF8A;}
</style>
<g id="Layer_2">
	<g id="Layer_1-2">
		<path class="st0" d="M334.3,332.2c0,7.9-6.4,14.3-14.3,14.3c-7.9,0-14.2-6.4-14.3-14.3v-38h-12.2v38c0,14.7,11.9,26.6,26.6,26.6
			s26.6-11.9,26.6-26.6v-38h-12.4V332.2z"/>
		<path class="st0" d="M59.2,306.6c5.1,0,9.9,1.9,13.6,5.4l7.2-10.2c-13.6-11.4-33.9-9.7-45.4,3.9c-11.4,13.6-9.7,33.9,3.9,45.4
			c12,10.1,29.5,10.1,41.5,0L73,340.9c-3.7,3.5-8.6,5.5-13.8,5.5c-11,0-19.9-8.9-19.9-19.9C39.3,315.5,48.2,306.6,59.2,306.6z"/>
		<polygon class="st0" points="198.1,337.6 168.1,294.2 168.1,294.2 155.8,294.2 155.8,358.7 168.1,358.7 168.1,315.4 198.1,358.7 
			198.1,358.7 198.1,358.7 210.4,358.7 210.4,294.2 198.1,294.2 		"/>
		<polygon class="st0" points="226.8,294.2 226.8,306.6 245.8,306.6 245.8,358.7 258.1,358.7 258.1,306.6 277.2,306.6 277.2,294.2 
					"/>
		<polygon class="st0" points="566.5,294.2 566.5,306.6 573.2,306.6 573.2,358.7 585.5,358.7 585.5,294.2 		"/>
		<polygon class="st0" points="96.3,294.2 96.3,358.7 139.3,358.7 139.3,346.4 108.6,346.4 108.6,332.6 133.3,332.6 133.3,320.3 
			108.6,320.3 108.6,306.6 139.3,306.6 139.3,294.2 		"/>
		<path class="st0" d="M412.7,315.9c0-12-9.7-21.7-21.7-21.7h-27.9v64.5h12.3v-21.2h7.9l14.7,21.2h14.6l-15.2-22.1
			C406.5,333.8,412.7,325.4,412.7,315.9z M391,325.2h-15.5v-18.7H391c5.2,0,9.3,4.2,9.3,9.3C400.3,321.1,396.2,325.2,391,325.2z"/>
		<polygon class="st0" points="469.1,294.2 451,320.3 432.9,294.2 418.3,294.2 444.9,332.6 444.9,358.7 457.2,358.7 457.2,332.6 
			483.7,294.2 		"/>
		<path class="st0" d="M549,326.4l0.3-0.5c6.3-9.3,3.8-22-5.6-28.3c-9.3-6.3-22-3.8-28.3,5.6c-2.2,3.3-3.4,7.3-3.5,11.3v0.8h12.3
			c0-0.2,0-0.5,0-0.8c0-4.4,3.6-8,8.1-8c4.3-0.1,7.9,3.2,8.1,7.5c0,0.2,0,0.3,0,0.5c-0.4,2.2-1.3,4.3-2.7,6.2l-26.2,38H554v-12.3
			h-19L549,326.4z"/>
		<path class="st0" d="M600,357.5c-1-0.7-1.7-1.9-1.7-3.1v-0.6c0,0,0-0.2,0.3-0.2h2.1c0.2,0,0.3,0,0.3,0.2v0.5
			c0,0.7,0.3,1.4,0.9,1.8c0.7,0.5,1.6,0.8,2.5,0.7c0.8,0,1.6-0.2,2.3-0.6c0.5-0.4,0.9-1,0.9-1.6c0-0.4-0.2-0.9-0.5-1.2
			c-0.3-0.4-0.8-0.7-1.3-0.9c-0.5-0.3-1.3-0.6-2.4-1.1c-1.1-0.5-2.1-0.9-2.8-1.3c-0.7-0.4-1.2-0.9-1.7-1.4c-0.5-0.6-0.7-1.3-0.7-2.1
			c0-1.2,0.6-2.3,1.6-2.9c1.2-0.8,2.7-1.2,4.2-1.1c1.1,0,2.2,0.2,3.2,0.5c0.9,0.3,1.6,0.8,2.2,1.6c0.5,0.7,0.8,1.5,0.8,2.3v0.5
			c0,0,0,0.2-0.3,0.2h-2.1c-0.2,0-0.3,0-0.3-0.2v-0.5c0-0.7-0.3-1.4-0.9-1.8c-0.8-0.5-1.6-0.7-2.5-0.7c-0.8,0-1.5,0.2-2.2,0.6
			c-0.5,0.4-0.8,1-0.8,1.6c0,0.4,0.1,0.8,0.4,1.2c0.3,0.4,0.7,0.7,1.2,0.9c0.5,0.3,1.3,0.6,2.4,1.1c1,0.4,2,0.9,3,1.4
			c0.7,0.3,1.2,0.8,1.7,1.4c0.4,0.6,0.7,1.3,0.6,2c0,1.2-0.6,2.4-1.6,3.1c-1.3,0.8-2.8,1.2-4.4,1.2
			C602.8,358.8,601.3,358.4,600,357.5z"/>
		<path class="st0" d="M613.8,358.3v-15.5c0,0,0-0.2,0.3-0.2h2.2c0.1-0.1,0.2-0.1,0.3,0l3.8,6.3l0,0l0,0l3.8-6.3
			c0.1-0.1,0.3-0.1,0.4,0h2.2c0,0,0.3,0,0.3,0.2v15.5c0,0,0,0.2-0.3,0.2h-2.2c-0.2,0-0.3,0-0.3-0.2v-10.9l0,0l0,0l-3.1,4.9
			c0,0-0.2,0-0.3,0h-1c0,0-0.3,0-0.3,0l-3.1-4.9l0,0v10.9c0,0,0,0.2-0.3,0.2H614C614,358.5,613.8,358.4,613.8,358.3z"/>
	</g>
</g>
</svg>
