<?xml version="1.0" encoding="utf-8"?>
<!-- Generator: Adobe Illustrator 19.2.1, SVG Export Plug-In . SVG Version: 6.00 Build 0)  -->
<svg version="1.1" id="layer" xmlns="http://www.w3.org/2000/svg" xmlns:xlink="http://www.w3.org/1999/xlink" x="0px" y="0px"
	 viewBox="0 0 652 652" style="enable-background:new 0 0 652 652;" xml:space="preserve">
<style type="text/css">
	.st0{fill:#F7323F;}
	.st1{fill:none;stroke:#000000;stroke-width:0.6196;stroke-miterlimit:3.8637;}
	.st2{fill:none;stroke:#000000;stroke-width:0.5366;stroke-miterlimit:3.8637;}
	.st3{fill:none;stroke:#000000;stroke-width:1.2879;stroke-miterlimit:3.8637;}
	.st4{fill:none;stroke:#000000;stroke-width:0.7513;stroke-miterlimit:3.8637;}
	.st5{stroke:#000000;stroke-width:0.5366;stroke-miterlimit:3.8637;}
	.st6{fill:none;}
	.st7{fill:none;stroke:#000000;stroke-width:0.5366;}
</style>
<path d="M54.9,360.6H29.6v10h23.3v8.5H29.6v12.4h26.5v8.5H19.8v-47.9h35.2C54.9,352.1,54.9,360.6,54.9,360.6z"/>
<path d="M92.4,352.1h9.3V400h-10l-19.6-34.1H72V400h-9.3v-47.9h10.5l19,33.3h0.1L92.4,352.1L92.4,352.1z"/>
<path d="M132.7,374.2h20V400H146l-1-6c-2.5,2.9-6.2,7.3-15,7.3c-11.6,0-22-8.3-22-25c0-13.1,7.3-25.4,23.4-25.3
	c14.7,0,20.5,9.6,21,16.1h-10c0-1.9-3.4-7.9-10.5-7.9c-7.1,0-13.7,4.9-13.7,17.2c0,13.1,7.1,16.5,13.9,16.5c2.2,0,9.6-0.9,11.6-10.5
	h-11.1L132.7,374.2L132.7,374.2z"/>
<path d="M196.2,360.6h-25.4v10h23.3v8.5h-23.3v12.4h26.5v8.5H161v-47.9h35.2V360.6L196.2,360.6z"/>
<g>
	<path d="M214.5,391.3h23.8v8.7h-33.8v-47.9h10V391.3z"/>
</g>
<path class="st0" d="M270.3,363.2c0,2.5-1.9,4.3-4.4,5.9c-2.3-2.5-3.5-4.4-3.5-6c0-2.5,1.8-3.9,3.9-3.9
	C268.6,359.2,270.3,360.5,270.3,363.2z M282.5,389.6c3.2-4.2,4.9-7.9,5.5-14.4h-8.3c-0.3,3.7-1.2,6-2.5,7.9l-6.8-8.4
	c1.9-1.1,7.9-4.6,7.9-11.4c0-7.7-6.5-11.1-11.7-11.1c-7.4,0-12.7,4.5-12.7,11c0,4.2,2.3,7.7,4.3,10l-1,0.6
	c-7.9,4.8-9.2,9.3-9.2,13.9c0,7.1,5.8,13.6,15,13.6c7.2,0,10.9-2.5,13.7-5.3l3.2,4h11.3L282.5,389.6z M271.8,390.1
	c-1.6,1.5-4.3,3.3-7.4,3.3c-5.6,0-7.1-4.5-7.1-6.3c0-3.8,1.7-5.1,5.7-8L271.8,390.1z"/>
<path d="M325.7,352.1h10.4L319.8,400h-9.6l-16.1-47.9h10.7l10.3,36.3h0.1L325.7,352.1z"/>
<path d="M348.1,376.1c0-13.4,7.6-16.7,13-16.7c5.4,0,13,3.3,13,16.7s-7.6,16.7-13,16.7C355.7,392.8,348.1,389.5,348.1,376.1z
	 M338.1,376.1c0,22.5,16.7,25.2,23,25.2c6.3,0,23-2.8,23-25.2s-16.7-25.2-23-25.2C354.7,350.9,338.1,353.6,338.1,376.1z M358.8,339
	h-8.4v7.7h8.4V339z M371.8,339h-8.4v7.7h8.4V339z"/>
<path d="M400.9,391.3h23.8v8.7h-33.8v-47.9h10V391.3L400.9,391.3z"/>
<path d="M441.9,400h-10v-47.9h10v19.5l18.2-19.5h13l-19.5,19.6l20.7,28.3h-12.8l-14.8-21l-4.6,4.8L441.9,400L441.9,400z"/>
<path d="M514.1,360.6h-25.4v10H512v8.5h-23.3v12.4h26.5v8.5h-36.3v-47.9h35.2V360.6L514.1,360.6z"/>
<path d="M532.6,373.2v-12.8h12.5c5.9,0,7,3.7,7,6.3c0,4.8-2.5,6.5-7.7,6.5H532.6z M522.9,400h9.8v-18.7H543c7.4,0,7.8,2.5,7.8,9.1
	c0,4.9,0.4,7.4,1.1,9.7h11.1v-1.2c-2.2-0.8-2.2-2.5-2.2-9.6c0-8.9-2.2-10.4-6-12.1c4.8-1.6,7.4-6.2,7.4-11.4
	c0-4.2-2.3-13.5-15.1-13.5h-24.2V400L522.9,400z"/>
<path d="M577.6,385.3c0.1,2.6,1.4,7.7,10.1,7.7c4.8,0,10-1.1,10-6.2c0-3.7-3.6-4.8-8.7-5.9l-5.1-1.2c-7.7-1.8-15.2-3.5-15.2-14.1
	c0-5.3,2.9-14.7,18.4-14.7c14.7,0,18.6,9.6,18.7,15.4h-9.6c-0.3-2.1-1.1-7.2-9.8-7.2c-3.8,0-8.3,1.4-8.3,5.7c0,3.7,3.1,4.5,5.1,5
	l11.7,2.9c6.5,1.6,12.5,4.3,12.5,12.8c0,14.4-14.7,15.7-18.8,15.7c-17.4,0-20.5-10-20.5-16L577.6,385.3L577.6,385.3z"/>
<g>
	<g>
		<path d="M612.1,347.8v-2.6h2.4c0.3,0,0.6,0.1,0.8,0.2c0.4,0.2,0.6,0.5,0.6,1.1c0,0.5-0.2,0.9-0.4,1c-0.3,0.2-0.6,0.3-1.1,0.3
			L612.1,347.8L612.1,347.8z M611.1,351.9h1v-3.3h2.3c0.4,0,0.7,0.1,0.9,0.2c0.3,0.2,0.5,0.5,0.5,1l0.1,1.3c0,0.3,0,0.5,0.1,0.6
			c0,0.1,0.1,0.2,0.1,0.3h1.2v-0.2c-0.2-0.1-0.3-0.2-0.3-0.5c-0.1-0.2-0.1-0.4-0.1-0.6l-0.1-1c0-0.4-0.1-0.8-0.3-1
			c-0.2-0.2-0.4-0.4-0.6-0.5c0.3-0.2,0.6-0.4,0.8-0.7c0.2-0.3,0.3-0.6,0.3-1.1c0-0.9-0.4-1.5-1-1.8c-0.4-0.2-0.9-0.3-1.4-0.3h-3.5
			V351.9L611.1,351.9z"/>
	</g>
	<path class="st1" d="M607.9,348.3c0.1-3.3,2.7-5.9,5.9-5.9c3.2,0.1,5.8,2.6,5.9,5.9c-0.1,3.2-2.7,5.8-5.9,5.7
		C610.6,354,607.9,351.4,607.9,348.3L607.9,348.3z"/>
</g>
<path class="st2" d="M290.7,285.6L290.7,285.6L290.7,285.6z"/>
<line class="st2" x1="227.8" y1="275.1" x2="398.8" y2="275.1"/>
<line class="st3" x1="227.8" y1="310.1" x2="227.8" y2="275.1"/>
<g>
	<line class="st4" x1="276.2" y1="275.1" x2="276.2" y2="311.9"/>
	<line class="st4" x1="281.1" y1="275.1" x2="281.1" y2="310.1"/>
	<line class="st4" x1="346" y1="275.1" x2="346" y2="310.1"/>
	<line class="st4" x1="350.9" y1="275.3" x2="350.9" y2="311.9"/>
</g>
<polyline class="st2" points="272.6,313.9 272.6,311.9 354.5,311.9 354.5,313.9 "/>
<polyline class="st2" points="270.3,315.7 270.3,314 356.8,314 356.8,316 "/>
<path class="st2" d="M273.1,271.9h80.9c0,0-0.3,3.2-2.8,3.2c-2.5,0-72.3,0-74.9,0C273.2,275.1,273.1,271.9,273.1,271.9z"/>
<line class="st2" x1="398.4" y1="310.1" x2="228.1" y2="310.1"/>
<polyline class="st3" points="356.6,315.6 400.7,315.6 400.6,309.7 398.4,309.7 "/>
<line class="st2" x1="270.3" y1="316" x2="356.8" y2="315.9"/>
<polyline class="st3" points="228.1,309.8 226,309.8 226,315.6 270.3,315.6 "/>
<path class="st2" d="M400.4,315.5"/>
<path class="st2" d="M356.9,315.5"/>
<line class="st2" x1="361.3" y1="305.7" x2="376.5" y2="305.7"/>
<path class="st2" d="M376.5,286.7c0.4-0.2,1-0.1,1.3-0.5c0,0,0-2.8,0-3.6s0.4-1.1,0.6-1.5s1.4-1.1,1.4-1.1h-21.9c0,0,1.2,1,1.3,1.3
	c0.2,0.2,0.6,0.6,0.7,1.3c0,0.6-0.1,3.1,0,3.6c0.1,0.5,0.8,0.3,1.3,0.5"/>
<polyline class="st2" points="361.3,310.1 361.3,282 376.5,282 376.5,310.1 "/>
<line class="st2" x1="367.8" y1="294.2" x2="363" y2="294.2"/>
<line class="st2" x1="367.9" y1="299" x2="363.1" y2="299"/>
<line class="st2" x1="367.9" y1="289.3" x2="363.1" y2="289.3"/>
<line class="st2" x1="374.8" y1="294.2" x2="369.9" y2="294.2"/>
<line class="st2" x1="374.8" y1="299" x2="369.9" y2="299"/>
<line class="st2" x1="374.8" y1="289.3" x2="369.9" y2="289.3"/>
<polygon class="st2" points="363.1,284.2 368,284.2 368,304 363.1,304 "/>
<polygon class="st2" points="370,284.3 374.7,284.3 374.7,304.2 370,304.2 "/>
<g>
	<line class="st4" x1="300.4" y1="275.1" x2="300.4" y2="310.1"/>
	<line class="st4" x1="303.7" y1="275.3" x2="303.7" y2="310.1"/>
	<line class="st4" x1="323.3" y1="275.1" x2="323.3" y2="310.1"/>
	<line class="st4" x1="326.7" y1="275.1" x2="326.7" y2="310.1"/>
	<path class="st5" d="M302.1,275.3h-3.5c0,0,0,0.4,0.3,0.8c0.3,0.4,1.3,1,1.3,1h1.8l0,0h0.2h0.2l0,0h1.8c0,0,1-0.6,1.3-1
		s0.3-0.8,0.3-0.8H302.1z"/>
	<path class="st5" d="M325,275.3h-3.5c0,0,0,0.4,0.3,0.8s1.3,1,1.3,1h1.8l0,0h0.2h0.2l0,0h1.8c0,0,1-0.6,1.3-1
		c0.3-0.4,0.3-0.8,0.3-0.8H325z"/>
	<polygon class="st5" points="321.7,308.6 328.3,308.6 328.3,309.9 321.7,309.9 	"/>
	<polygon class="st5" points="298.9,308.6 305.5,308.6 305.5,309.9 298.9,309.9 	"/>
</g>
<rect x="339.4" y="243.5" class="st2" width="4.9" height="4.5"/>
<rect x="282.7" y="243.5" class="st2" width="4.9" height="4.5"/>
<line class="st3" x1="398.6" y1="310.1" x2="398.6" y2="274.8"/>
<path class="st2" d="M291,285.7L291,285.7L291,285.7z"/>
<path class="st2" d="M336.5,285.7L336.5,285.7L336.5,285.7z"/>
<g>
	<g>
		<path class="st2" d="M286.9,285.7c0.1-2.1,1.7-3.8,3.9-3.9c2,0.1,3.6,1.8,3.6,3.9"/>
		<line class="st2" x1="290.6" y1="285.7" x2="290.6" y2="279"/>
		<line class="st2" x1="295.5" y1="281.1" x2="293.4" y2="283.2"/>
		<line class="st2" x1="286.3" y1="281.1" x2="288.3" y2="283.2"/>
		<path class="st2" d="M298.8,285.7c-0.1-4.5-3.7-8.2-8.3-8.2c-4.3,0.1-7.8,3.7-7.9,8.2"/>
		<path class="st2" d="M290.6,279c-3.5,0.1-6.3,3.1-6.4,6.7h13.1C297.3,282.1,294.4,279.1,290.6,279z"/>
		<polygon class="st2" points="284.1,287.5 289.8,287.5 289.8,304 284.1,304 		"/>
		<line class="st2" x1="284.1" y1="295.8" x2="289.8" y2="295.8"/>
		<line class="st2" x1="284.1" y1="291.6" x2="289.8" y2="291.6"/>
		<line class="st2" x1="284.1" y1="299.4" x2="289.8" y2="299.4"/>
		<line class="st2" x1="287" y1="287.5" x2="287" y2="304"/>
		<polygon class="st2" points="291.7,287.5 297.3,287.5 297.3,304 291.7,304 		"/>
		<line class="st2" x1="291.7" y1="295.8" x2="297.3" y2="295.8"/>
		<line class="st2" x1="291.7" y1="291.6" x2="297.3" y2="291.6"/>
		<line class="st2" x1="291.7" y1="299.4" x2="297.3" y2="299.4"/>
		<line class="st2" x1="294.5" y1="287.5" x2="294.5" y2="304"/>
		<line class="st2" x1="282.6" y1="310.2" x2="282.6" y2="285.5"/>
		<line class="st2" x1="298.8" y1="310.2" x2="298.8" y2="285.5"/>
	</g>
	<g>
		<path class="st2" d="M332.6,285.7c0.1-2.1,1.7-3.8,3.9-3.9c2,0.1,3.6,1.8,3.6,3.9"/>
		<line class="st2" x1="336.3" y1="285.7" x2="336.3" y2="279"/>
		<line class="st2" x1="341.1" y1="281.1" x2="339" y2="283.2"/>
		<line class="st2" x1="331.8" y1="281.1" x2="333.9" y2="283.2"/>
		<path class="st2" d="M344.4,285.7c-0.1-4.5-3.7-8.2-8.3-8.2c-4.3,0.1-7.8,3.7-7.9,8.2"/>
		<path class="st2" d="M336.2,279c-3.5,0.1-6.3,3.1-6.4,6.7h13.1C342.9,282.1,340,279.1,336.2,279z"/>
		<polygon class="st2" points="329.8,287.5 335.4,287.5 335.4,304 329.8,304 		"/>
		<line class="st2" x1="329.8" y1="295.8" x2="335.4" y2="295.8"/>
		<line class="st2" x1="329.8" y1="291.6" x2="335.4" y2="291.6"/>
		<line class="st2" x1="329.8" y1="299.4" x2="335.4" y2="299.4"/>
		<line class="st2" x1="332.6" y1="287.5" x2="332.6" y2="304"/>
		<polygon class="st2" points="337.3,287.5 342.9,287.5 342.9,304 337.3,304 		"/>
		<line class="st2" x1="337.3" y1="295.8" x2="342.9" y2="295.8"/>
		<line class="st2" x1="337.3" y1="291.6" x2="342.9" y2="291.6"/>
		<line class="st2" x1="337.3" y1="299.4" x2="342.9" y2="299.4"/>
		<line class="st2" x1="340.1" y1="287.5" x2="340.1" y2="304"/>
		<line class="st2" x1="328.3" y1="310.2" x2="328.3" y2="285.5"/>
		<line class="st2" x1="344.4" y1="310.2" x2="344.4" y2="285.5"/>
	</g>
</g>
<line class="st2" x1="249.7" y1="305.8" x2="264.9" y2="305.8"/>
<path class="st2" d="M264.9,286.8c0.4-0.2,1-0.1,1.3-0.5c0,0,0-2.8,0-3.6s0.4-1.1,0.6-1.5s1.4-1.1,1.4-1.1h-21.9c0,0,1.2,1,1.3,1.3
	c0.2,0.3,0.6,0.6,0.7,1.3c0,0.6-0.1,3.1,0,3.6c0.1,0.5,0.8,0.3,1.3,0.5"/>
<polyline class="st2" points="249.7,310.2 249.7,282.1 264.9,282.1 264.9,310.2 "/>
<line class="st2" x1="256.4" y1="294.2" x2="251.5" y2="294.2"/>
<line class="st2" x1="256.4" y1="299.1" x2="251.5" y2="299.1"/>
<line class="st2" x1="256.4" y1="289.3" x2="251.5" y2="289.3"/>
<line class="st2" x1="263.1" y1="294.2" x2="258.2" y2="294.2"/>
<line class="st2" x1="263.1" y1="299.1" x2="258.2" y2="299.1"/>
<line class="st2" x1="263.1" y1="289.3" x2="258.2" y2="289.3"/>
<polygon class="st2" points="251.5,284.5 256.4,284.5 256.4,304.3 251.5,304.3 "/>
<polygon class="st2" points="258.2,284.5 263.1,284.5 263.1,304.3 258.2,304.3 "/>
<path class="st2" d="M309.8,285.7c0.1-2.1,1.7-3.8,3.9-3.9c2,0.1,3.6,1.8,3.6,3.9"/>
<line class="st2" x1="313.6" y1="285.7" x2="313.6" y2="279"/>
<line class="st2" x1="318.2" y1="281.1" x2="316.1" y2="283.2"/>
<line class="st2" x1="308.9" y1="281.1" x2="311" y2="283.2"/>
<path class="st2" d="M313.7,285.7L313.7,285.7L313.7,285.7z"/>
<path class="st2" d="M321.6,285.7c-0.1-4.5-3.7-8.2-8.3-8.2c-4.3,0.1-7.8,3.7-7.9,8.2"/>
<path class="st2" d="M313.4,279c-3.5,0.1-6.3,3.1-6.4,6.7h13.1C320,282.1,317.1,279.1,313.4,279z"/>
<line class="st2" x1="305.5" y1="310.2" x2="305.5" y2="285.5"/>
<line class="st2" x1="321.7" y1="310.2" x2="321.7" y2="285.5"/>
<g>
	<polygon class="st2" points="307,287.5 312.7,287.5 312.7,304 307,304 	"/>
	<line class="st2" x1="307" y1="295.8" x2="312.7" y2="295.8"/>
	<line class="st2" x1="307" y1="291.6" x2="312.7" y2="291.6"/>
	<line class="st2" x1="307" y1="299.4" x2="312.7" y2="299.4"/>
	<line class="st2" x1="309.8" y1="287.5" x2="309.8" y2="304"/>
	<polygon class="st2" points="314.4,287.5 320.1,287.5 320.1,304 314.4,304 	"/>
	<line class="st2" x1="314.4" y1="295.8" x2="320.1" y2="295.8"/>
	<line class="st2" x1="314.4" y1="291.6" x2="320.1" y2="291.6"/>
	<line class="st2" x1="314.4" y1="299.4" x2="320.1" y2="299.4"/>
	<line class="st2" x1="317.3" y1="287.5" x2="317.3" y2="304"/>
	<line class="st2" x1="312.7" y1="303.9" x2="312.7" y2="310"/>
	<line class="st2" x1="314.5" y1="303.9" x2="314.5" y2="310"/>
</g>
<path class="st6" d="M300,265.2c0.4,0,3.7,0,4.1,0c0.4,0,0.6-0.3,0.6-0.6s-0.2-0.6-0.6-0.6c-0.4,0-3.6,0-4,0c-0.4,0-0.6,0.3-0.6,0.6
	C299.4,264.9,299.6,265.2,300,265.2z"/>
<rect x="300.8" y="265.8" class="st6" width="2.6" height="3.6"/>
<path class="st6" d="M306.2,265.2c0.5,0,14.2,0,14.7,0s0.8-0.3,0.8-0.6s-0.2-0.6-0.8-0.6c-0.5,0-14.1,0-14.7,0
	c-0.5,0-0.8,0.3-0.8,0.6S305.7,265.2,306.2,265.2z"/>
<rect x="281.5" y="265.8" class="st6" width="18.6" height="3.6"/>
<circle class="st6" cx="278.6" cy="255.9" r="0.5"/>
<path class="st6" d="M283.4,265.2c0.5,0,14.2,0,14.7,0c0.5,0,0.8-0.3,0.8-0.6s-0.2-0.6-0.8-0.6c-0.5,0-14.1,0-14.7,0
	c-0.5,0-0.8,0.3-0.8,0.6C282.6,264.9,282.9,265.2,283.4,265.2z"/>
<polygon class="st6" points="304.3,265.8 304.3,269.4 313.6,269.4 322.9,269.4 322.9,265.8 313.6,265.8 "/>
<rect x="323.7" y="265.8" class="st6" width="2.6" height="3.6"/>
<path class="st6" d="M276.3,258.3c0.2,0.1,0.5,0.3,0.7,0.5c0.2,0.2,0.2,2.2,0.3,2.3c0.1,0.2,0.9,0.5,1.3,0.5s1.1-0.3,1.3-0.5
	c0.2-0.2,0.2-2.1,0.4-2.3c0.2-0.2,0.5-0.4,0.6-0.5c0.2-0.2,0.6-0.5,0.4-0.8c-0.2-0.2-0.8,0-1,0c-0.3,0-0.9-0.3-1-0.4
	c-0.2-0.2-0.4-0.3-0.7-0.3s-0.5,0.2-0.7,0.3c-0.2,0.1-0.8,0.4-1,0.4s-0.9-0.3-1.1,0C275.6,257.8,276.1,258.2,276.3,258.3z"/>
<path class="st6" d="M322.9,265.2c0.4,0,3.7,0,4.1,0c0.4,0,0.6-0.3,0.6-0.6s-0.2-0.6-0.6-0.6s-3.6,0-4,0s-0.6,0.3-0.6,0.6
	C322.3,264.9,322.5,265.2,322.9,265.2z"/>
<circle class="st6" cx="348.5" cy="262.7" r="0.7"/>
<path class="st6" d="M329.1,265.2c0.5,0,14.2,0,14.7,0s0.8-0.3,0.8-0.6s-0.2-0.6-0.8-0.6c-0.5,0-14.1,0-14.7,0
	c-0.5,0-0.8,0.3-0.8,0.6C328.3,264.9,328.5,265.2,329.1,265.2z"/>
<path class="st6" d="M346.2,258.3c0.2,0.1,0.5,0.3,0.7,0.5c0.2,0.2,0.2,2.2,0.3,2.3c0.1,0.2,0.9,0.5,1.3,0.5c0.4,0,1.1-0.3,1.3-0.5
	c0.2-0.2,0.2-2.1,0.4-2.3c0.2-0.2,0.5-0.4,0.6-0.5c0.2-0.2,0.6-0.5,0.4-0.8c-0.2-0.2-0.8,0-1,0c-0.3,0-0.9-0.3-1-0.4
	c-0.2-0.2-0.4-0.3-0.7-0.3s-0.5,0.2-0.7,0.3c-0.2,0.1-0.8,0.4-1,0.4s-0.9-0.3-1.1,0C345.6,257.8,346.1,258.2,346.2,258.3z"/>
<circle class="st6" cx="278.6" cy="262.7" r="0.7"/>
<rect x="346.4" y="265.8" class="st6" width="4.1" height="3.6"/>
<path class="st6" d="M351,270c-0.5,0-4.6,0-5.1,0c-0.5,0-0.8,0.3-0.8,0.6s0.3,0.6,0.8,0.6s4.6,0,5.1,0s0.8-0.3,0.8-0.6
	C351.8,270.3,351.6,270,351,270z"/>
<path class="st6" d="M343.7,270.1c-0.5,0-14.1,0-14.7,0c-0.5,0-0.8,0.3-0.8,0.6s0.3,0.6,0.8,0.6c0.5,0,14.2,0,14.7,0
	s0.8-0.3,0.8-0.6C344.5,270.4,344.3,270.1,343.7,270.1z"/>
<path class="st6" d="M351,263.9c-0.5,0-4.6,0-5.1,0c-0.5,0-0.8,0.3-0.8,0.6s0.3,0.6,0.8,0.6s4.6,0,5.1,0s0.8-0.3,0.8-0.6
	S351.6,263.9,351,263.9z"/>
<path class="st6" d="M348.5,256.4c0.3,0,0.5-0.2,0.5-0.5c0-0.3-0.2-0.5-0.5-0.5c-0.3,0-0.5,0.2-0.5,0.5
	C348.1,256.2,348.3,256.4,348.5,256.4z"/>
<path class="st6" d="M327,270.1c-0.4,0-3.6,0-4,0c-0.4,0-0.6,0.3-0.6,0.6s0.2,0.6,0.6,0.6c0.4,0,3.7,0,4.1,0c0.4,0,0.6-0.3,0.6-0.6
	C327.6,270.4,327.4,270.1,327,270.1z"/>
<path class="st6" d="M304.1,270.1c-0.4,0-3.6,0-4,0s-0.6,0.3-0.6,0.6s0.2,0.6,0.6,0.6c0.4,0,3.7,0,4.1,0c0.4,0,0.6-0.3,0.6-0.6
	C304.8,270.4,304.6,270.1,304.1,270.1z"/>
<path class="st6" d="M281.1,270.1c-0.5,0-4.6,0-5.1,0s-0.8,0.3-0.8,0.6s0.3,0.6,0.8,0.6s4.6,0,5.1,0s0.8-0.3,0.8-0.6
	C281.8,270.4,281.6,270.1,281.1,270.1z"/>
<path class="st6" d="M320.9,270.1c-0.5,0-14.1,0-14.7,0c-0.5,0-0.8,0.3-0.8,0.6s0.3,0.6,0.8,0.6c0.5,0,14.2,0,14.7,0
	s0.8-0.3,0.8-0.6C321.7,270.4,321.5,270.1,320.9,270.1z"/>
<path class="st6" d="M275.9,265.2c0.5,0,4.6,0,5.1,0s0.8-0.3,0.8-0.6s-0.3-0.6-0.8-0.6c-0.5,0-4.6,0-5.1,0s-0.8,0.3-0.8,0.6
	C275.1,264.9,275.5,265.2,275.9,265.2z"/>
<rect x="276.5" y="265.8" class="st6" width="4.1" height="3.6"/>
<path class="st6" d="M298.1,270.1c-0.5,0-14.1,0-14.7,0c-0.5,0-0.8,0.3-0.8,0.6s0.3,0.6,0.8,0.6c0.5,0,14.2,0,14.7,0
	s0.8-0.3,0.8-0.6S298.6,270.1,298.1,270.1z"/>
<rect x="327.1" y="265.8" class="st6" width="18.6" height="3.6"/>
<path class="st6" d="M313.4,254.5c-3.9,0.1-7.1,3.2-7,7.2h13.9C320.3,257.7,317.2,254.5,313.4,254.5z M309.7,256.9L309.7,256.9
	L309.7,256.9c0.9-0.9,2.2-1.5,3.7-1.5l0,0v-0.1v0.1c1.5,0,2.8,0.6,3.7,1.5l0,0l0,0c1.5,1.3,2.3,3.3,2.3,4h-11.9
	C307.5,260.1,308.2,258.2,309.7,256.9z"/>
<path class="st7" d="M315,259.5L315,259.5L315,259.5c0.4,0.5,0.6,1.1,0.6,1.3c0,0.1-4.6,0-4.6,0c0-0.3,0.3-0.9,0.7-1.4l0.1,0.1
	l-0.1-0.1c0.4-0.4,0.9-0.8,1.6-0.8l0,0v2v-2C314.1,258.7,314.6,259.1,315,259.5z"/>
<path class="st7" d="M319.3,260.9h-11.9c0-0.8,0.7-2.6,2.2-4l2.1,2.6c-0.5,0.5-0.7,1.1-0.7,1.4c0,0,4.6,0.1,4.6,0
	c0-0.3-0.2-0.9-0.6-1.3l2.1-2.6C318.6,258.2,319.3,260.2,319.3,260.9z"/>
<path d="M313.4,254.5c3.8,0.1,7,3.2,7,7.2h-13.9C306.3,257.7,309.4,254.5,313.4,254.5z M353.5,245.7h-9.3v2.3h-4.9v-2.3h-51.8v2.3
	h-4.9v-2.3h-9l-49.2,24.5c0.3,1,0.9,1.8,1.3,2.4c0,0.1,175.5,0,175.5,0s0.6-0.9,1-1.5c0.3-0.6,0.4-1,0.4-1L353.5,245.7z
	 M348.5,255.5c0.3,0,0.5,0.2,0.5,0.5c0,0.3-0.2,0.5-0.5,0.5c-0.3,0-0.5-0.2-0.5-0.5C348.1,255.7,348.3,255.5,348.5,255.5z
	 M345.8,257.5c0.2-0.3,0.9,0.1,1.1,0c0.2,0,0.8-0.3,1-0.4c0.2-0.1,0.4-0.3,0.7-0.3c0.3,0,0.5,0.1,0.7,0.3c0.2,0.2,0.8,0.4,1,0.4
	s0.8-0.2,1,0c0.2,0.2-0.2,0.6-0.4,0.8c-0.2,0.2-0.5,0.3-0.6,0.5c-0.2,0.2-0.2,2.1-0.4,2.3c-0.2,0.2-0.9,0.5-1.3,0.5
	c-0.4,0-1.2-0.3-1.3-0.5c-0.1-0.2-0.2-2.2-0.3-2.3c-0.2-0.2-0.5-0.4-0.7-0.5C346.1,258.2,345.6,257.8,345.8,257.5z M349.3,262.7
	c0,0.4-0.3,0.7-0.7,0.7s-0.7-0.3-0.7-0.7s0.3-0.7,0.7-0.7C349,261.9,349.3,262.3,349.3,262.7z M329.1,263.9c0.5,0,14.1,0,14.7,0
	c0.5,0,0.8,0.3,0.8,0.6s-0.3,0.6-0.8,0.6s-14.1,0-14.7,0c-0.5,0-0.8-0.3-0.8-0.6C328.3,264.2,328.5,263.9,329.1,263.9z M345.6,265.8
	v3.6h-18.6v-3.6H345.6z M322.9,263.9c0.4,0,3.6,0,4,0c0.4,0,0.6,0.3,0.6,0.6s-0.2,0.6-0.6,0.6c-0.4,0-3.7,0-4.1,0
	c-0.4,0-0.6-0.3-0.6-0.6S322.5,263.9,322.9,263.9z M326.3,265.8v3.6h-2.6v-3.6H326.3z M322.9,265.8v3.6h-9.3h-9.3v-3.6h9.3H322.9z
	 M306.2,263.9c0.5,0,14.1,0,14.7,0c0.5,0,0.8,0.3,0.8,0.6s-0.3,0.6-0.8,0.6s-14.1,0-14.7,0c-0.5,0-0.8-0.3-0.8-0.6
	S305.7,263.9,306.2,263.9z M300.1,263.9c0.4,0,3.6,0,4,0c0.4,0,0.6,0.3,0.6,0.6s-0.2,0.6-0.6,0.6c-0.4,0-3.7,0-4.1,0
	c-0.4,0-0.6-0.3-0.6-0.6C299.4,264.2,299.6,263.9,300.1,263.9z M303.4,265.8v3.6h-2.6v-3.6H303.4z M300,265.8v3.6h-18.6v-3.6
	C281.5,265.8,300,265.8,300,265.8z M283.4,263.9c0.5,0,14.1,0,14.7,0c0.5,0,0.8,0.3,0.8,0.6s-0.3,0.6-0.8,0.6s-14.1,0-14.7,0
	c-0.5,0-0.8-0.3-0.8-0.6C282.6,264.2,282.9,263.9,283.4,263.9z M278.6,255.5c0.3,0,0.5,0.2,0.5,0.5c0,0.3-0.2,0.5-0.5,0.5
	c-0.3,0-0.5-0.2-0.5-0.5C278.1,255.7,278.3,255.5,278.6,255.5z M275.8,257.5c0.2-0.3,0.9,0.1,1.1,0c0.2,0,0.8-0.3,1-0.4
	c0.2-0.1,0.4-0.3,0.7-0.3s0.5,0.1,0.7,0.3c0.2,0.2,0.8,0.4,1,0.4s0.8-0.2,1,0c0.2,0.2-0.2,0.6-0.4,0.8c-0.2,0.2-0.5,0.3-0.6,0.5
	c-0.1,0.2-0.2,2.1-0.4,2.3c-0.2,0.2-0.9,0.5-1.3,0.5c-0.4,0-1.2-0.3-1.3-0.5c-0.1-0.2-0.2-2.2-0.3-2.3c-0.2-0.2-0.5-0.4-0.7-0.5
	C276.1,258.2,275.6,257.8,275.8,257.5z M279.3,262.7c0,0.4-0.3,0.7-0.7,0.7c-0.4,0-0.7-0.3-0.7-0.7s0.3-0.7,0.7-0.7
	C279,261.9,279.3,262.3,279.3,262.7z M275.9,263.9c0.5,0,4.5,0,5.1,0c0.5,0,0.8,0.3,0.8,0.6s-0.3,0.6-0.8,0.6s-4.6,0-5.1,0
	s-0.8-0.3-0.8-0.6C275.1,264.2,275.4,263.9,275.9,263.9z M280.6,265.8v3.6h-4.1v-3.6C276.5,265.8,280.6,265.8,280.6,265.8z
	 M281.1,271.4c-0.5,0-4.6,0-5.1,0s-0.8-0.3-0.8-0.6c0-0.4,0.3-0.6,0.8-0.6c0.5,0,4.5,0,5.1,0c0.5,0,0.8,0.3,0.8,0.6
	C281.8,271.1,281.6,271.4,281.1,271.4z M298.1,271.4c-0.5,0-14.1,0-14.7,0c-0.5,0-0.8-0.3-0.8-0.6s0.3-0.6,0.8-0.6
	c0.5,0,14.1,0,14.7,0c0.5,0,0.8,0.3,0.8,0.6C298.9,271.1,298.6,271.4,298.1,271.4z M304.1,271.4c-0.4,0-3.7,0-4.1,0
	c-0.4,0-0.6-0.3-0.6-0.6c0-0.4,0.2-0.6,0.6-0.6s3.6,0,4,0s0.6,0.3,0.6,0.6C304.8,271.1,304.5,271.4,304.1,271.4z M320.9,271.4
	c-0.5,0-14.1,0-14.7,0c-0.5,0-0.8-0.3-0.8-0.6s0.3-0.6,0.8-0.6c0.5,0,14.1,0,14.7,0c0.5,0,0.8,0.3,0.8,0.6S321.4,271.4,320.9,271.4z
	 M327,271.4c-0.4,0-3.7,0-4.1,0c-0.4,0-0.6-0.3-0.6-0.6c0-0.4,0.2-0.6,0.6-0.6c0.4,0,3.6,0,4,0c0.4,0,0.6,0.3,0.6,0.6
	C327.6,271.1,327.3,271.4,327,271.4z M343.7,271.4c-0.5,0-14.1,0-14.7,0c-0.5,0-0.8-0.3-0.8-0.6s0.3-0.6,0.8-0.6
	c0.5,0,14.1,0,14.7,0c0.5,0,0.8,0.3,0.8,0.6C344.5,271.1,344.2,271.4,343.7,271.4z M351,271.3c-0.5,0-4.6,0-5.1,0
	c-0.5,0-0.8-0.3-0.8-0.6c0-0.4,0.3-0.6,0.8-0.6c0.5,0,4.5,0,5.1,0c0.5,0,0.8,0.3,0.8,0.6C351.8,271,351.5,271.3,351,271.3z
	 M346.4,269.4v-3.6h4.1v3.6H346.4z M351,265.2c-0.5,0-4.6,0-5.1,0c-0.5,0-0.8-0.3-0.8-0.6s0.3-0.6,0.8-0.6c0.5,0,4.5,0,5.1,0
	c0.5,0,0.8,0.3,0.8,0.6S351.5,265.2,351,265.2z"/>
<path class="st2" d="M313.4,258.7v-3.3c1.5,0,2.8,0.6,3.7,1.5l-2.1,2.6C314.6,259.1,314.1,258.7,313.4,258.7z"/>
<path class="st2" d="M311.7,259.5l-2.1-2.6c0.9-0.9,2.2-1.5,3.7-1.5l0,0v3.3l0,0C312.7,258.7,312.1,259,311.7,259.5z"/>
<path class="st3" d="M401.8,270.4c-0.6,1.8-2.9,4.4-3.4,4.9"/>
<path class="st3" d="M225.2,270.3c0.5,1.5,2.4,4.6,2.9,5.1"/>
</svg>
